<svg width="130" height="155" viewBox="0 0 130 155" fill="none" xmlns="http://www.w3.org/2000/svg">
<rect x="56.3859" y="16.7492" width="28.9061" height="54.8693" rx="14.4531" transform="rotate(87.8505 56.3859 16.7492)" fill="#9D9BFF"/>
<rect x="56.3859" y="16.7492" width="28.9061" height="54.8693" rx="14.4531" transform="rotate(87.8505 56.3859 16.7492)" stroke="#181818" stroke-width="3"/>
<rect x="127.361" y="13.927" width="28.9061" height="54.8693" rx="14.4531" transform="rotate(87.8505 127.361 13.927)" fill="#9D9BFF"/>
<rect x="127.361" y="13.927" width="28.9061" height="54.8693" rx="14.4531" transform="rotate(87.8505 127.361 13.927)" stroke="#181818" stroke-width="3"/>
<rect x="97.9308" y="46.1576" width="20.7557" height="71.3119" rx="10.3779" transform="rotate(72.6078 97.9308 46.1576)" fill="#5CD669"/>
<rect x="97.9308" y="46.1576" width="20.7557" height="71.3119" rx="10.3779" transform="rotate(72.6078 97.9308 46.1576)" stroke="#181818" stroke-width="3"/>
<rect x="94.5296" y="74.8081" width="12.2818" height="56.1483" rx="6.14092" transform="rotate(72.6078 94.5296 74.8081)" fill="#EDA7FF"/>
<rect x="94.5296" y="74.8081" width="12.2818" height="56.1483" rx="6.14092" transform="rotate(72.6078 94.5296 74.8081)" stroke="#181818" stroke-width="3"/>
<g clip-path="url(#clip0_6_31)">
<rect x="47.5334" y="1.42279" width="31.9061" height="153.523" rx="15.9531" transform="rotate(-2.55592 47.5334 1.42279)" fill="#F6BB54"/>
</g>
<rect x="49.0988" y="2.85441" width="28.9061" height="150.523" rx="14.4531" transform="rotate(-2.55592 49.0988 2.85441)" stroke="#181818" stroke-width="3"/>
<defs>
<clipPath id="clip0_6_31">
<rect x="47.5334" y="1.42279" width="31.9061" height="153.523" rx="15.9531" transform="rotate(-2.55592 47.5334 1.42279)" fill="white"/>
</clipPath>
</defs>
</svg>
