<svg width="391" height="844" viewBox="0 0 391 844" fill="none" xmlns="http://www.w3.org/2000/svg">
<g clip-path="url(#clip0_6_24)">
<rect width="391" height="844" fill="white"/>
<path d="M-17.409 710.446L-65.296 759.52C-73.2303 767.651 -78.1591 778.241 -79.2707 789.547L-84.7013 844.78C-87.5569 873.824 -65.0358 899.13 -35.8574 899.664L368.084 907.067C396.052 907.579 419 885.048 419 857.075V477.376C419 455.397 387.993 450.778 381.587 471.803C378.414 482.22 367.194 487.887 356.926 484.26L343.42 479.488C326.746 473.597 308.402 481.971 301.93 498.428L278.574 557.815C270.25 578.979 246.859 589.973 225.253 582.875L200.005 574.581C180.973 568.329 162.081 584.459 165.27 604.236L171.682 643.993C175.386 666.954 143.941 677.231 133.37 656.514C125.222 640.547 101.92 642.096 95.9586 659.002L76.9314 712.96C68.9563 735.576 37.8966 737.912 26.629 716.743C17.8655 700.278 -4.38271 697.097 -17.409 710.446Z" fill="#5CD669"/>
<path d="M359.639 149.823L405.895 99.2088C413.559 90.8227 418.138 80.0766 418.88 68.7401L422.5 13.3591C424.404 -15.762 401.067 -40.3177 371.887 -39.8975L-32.0806 -34.0798C-60.0504 -33.677 -82.249 -10.4068 -81.3338 17.5509L-68.9107 397.047C-68.1916 419.015 -37.0497 422.616 -31.3356 401.393C-28.5045 390.878 -17.4762 384.846 -7.09527 388.136L6.56016 392.463C23.4176 397.805 41.4775 388.836 47.4078 372.176L68.8083 312.057C76.435 290.631 99.454 278.878 121.281 285.265L146.786 292.729C166.013 298.354 184.368 281.616 180.532 261.954L172.823 222.427C168.37 199.599 199.462 188.3 210.705 208.66C219.371 224.352 242.61 222.041 248.015 204.949L265.267 150.397C272.498 127.532 303.464 124.182 315.419 144.971C324.716 161.14 347.056 163.591 359.639 149.823Z" fill="#9D9BFF"/>
</g>
<defs>
<clipPath id="clip0_6_24">
<rect width="391" height="844" fill="white"/>
</clipPath>
</defs>
</svg>
