<svg width="391" height="428" viewBox="0 0 391 428" fill="none" xmlns="http://www.w3.org/2000/svg">
<path d="M374.639 161.823L420.895 111.209C428.559 102.823 433.138 92.0766 433.88 80.7401L437.5 25.3591C439.404 -3.76202 416.067 -28.3177 386.887 -27.8975L-17.0806 -22.0798C-45.0504 -21.677 -67.249 1.59317 -66.3338 29.5509L-53.9107 409.047C-53.1916 431.015 -22.0497 434.616 -16.3356 413.393C-13.5045 402.878 -2.47613 396.846 7.90479 400.136L21.5602 404.463C38.4176 409.805 56.4775 400.836 62.4078 384.176L83.8083 324.057C91.435 302.631 114.454 290.878 136.281 297.265L161.786 304.728C181.013 310.354 199.368 293.616 195.532 273.953L187.823 234.427C183.37 211.599 214.462 200.3 225.705 220.66C234.371 236.352 257.61 234.041 263.015 216.949L280.267 162.397C287.498 139.532 318.464 136.182 330.419 156.971C339.716 173.14 362.056 175.591 374.639 161.823Z" fill="#9D9BFF"/>
</svg>
